<svg width="500" height="500" viewBox="0 0 500 500" fill="none" xmlns="http://www.w3.org/2000/svg">
<circle cx="250" cy="250" r="250" fill="#282A36"/>
<path d="M394.13 116.418C410.694 145.457 416.052 174.921 410.202 204.808C404.432 234.408 388.957 256.388 363.777 270.751C350.544 278.299 336.683 283.038 322.195 284.969C307.602 286.716 288.615 285.245 265.235 280.555C242.039 275.761 226.097 273.649 217.41 274.219C208.722 274.79 200.519 277.277 192.8 281.68C178.464 289.857 170.267 301.109 168.209 315.437C166.046 329.581 169.892 345.291 179.746 362.568L135.675 388.437C118.901 359.03 113.57 330.039 119.681 301.464C125.792 272.888 141.621 251.315 167.168 236.743C181.136 228.775 196.23 224.063 212.45 222.606C228.67 221.149 249.113 223.251 273.778 228.913C298.339 234.391 317.025 234.694 329.836 229.822L338.145 225.814C352.113 217.846 360.376 206.069 362.934 190.482C365.676 174.79 362.067 158.214 352.107 140.753L394.13 116.418Z" fill="white"/>
</svg>
